<svg width="24" height="24" viewBox="0 0 24 24" fill="none" xmlns="http://www.w3.org/2000/svg">
<path d="M10.02 4.46997L12 2" stroke="#3492F7" stroke-width="1.5" stroke-linecap="round" stroke-linejoin="round"/>
<path d="M3.98975 16.96C5.41975 19.94 8.46976 22 11.9998 22C16.9098 22 20.8898 18.02 20.8898 13.11C20.8898 8.19999 16.9098 4.21997 11.9998 4.21997C11.3198 4.21997 10.6598 4.31002 10.0198 4.46002" stroke="#3492F7" stroke-width="1.5" stroke-linecap="round" stroke-linejoin="round"/>
<path d="M4.90985 7.80005C3.79985 9.28005 3.10986 11.11 3.10986 13.11" stroke="#3492F7" stroke-width="1.5" stroke-linecap="round" stroke-linejoin="round"/>
<path d="M15.9601 10.8301H12.9001L12.1401 13.1201H14.4301C15.2701 13.1201 15.9601 13.8001 15.9601 14.6501C15.9601 15.4901 15.2801 16.1801 14.4301 16.1801H12.1401" stroke="#3492F7" stroke-width="1.5" stroke-linecap="round" stroke-linejoin="round"/>
<path d="M9.54004 16.17V10.8301L8.04004 12.5001" stroke="#3492F7" stroke-width="1.5" stroke-linecap="round" stroke-linejoin="round"/>
</svg>
