<svg width="24" height="24" viewBox="0 0 24 24" fill="none" xmlns="http://www.w3.org/2000/svg">
<path d="M2 8.33994V15.6599C2 17.1599 3.62999 18.0999 4.92999 17.3499L8.10001 15.5299L11.27 13.7C11.47 13.58 11.63 13.45 11.76 13.29V10.73C11.63 10.57 11.47 10.44 11.27 10.32L8.10001 8.48993L4.92999 6.66996C3.62999 5.89996 2 6.83994 2 8.33994Z" stroke="#3492F7" stroke-width="1.5" stroke-linecap="round" stroke-linejoin="round"/>
<path d="M14.68 6.64995C13.38 5.89995 11.75 6.83995 11.75 8.33995V15.66C11.75 17.16 13.38 18.1 14.68 17.35L17.85 15.53L21.02 13.7C22.32 12.95 22.32 11.08 21.02 10.32L18.84 9.05995" stroke="#3492F7" stroke-width="1.5" stroke-linecap="round" stroke-linejoin="round"/>
</svg>
