<svg width="24" height="24" viewBox="0 0 24 24" fill="none" xmlns="http://www.w3.org/2000/svg">
<path d="M10.3698 18.1401C10.3698 19.5601 9.31973 20.72 7.78973 20.72H4.56976C3.14976 20.72 1.98975 19.5601 1.98975 18.1401L1.98975 12.3401" stroke="#3492F7" stroke-width="1.5" stroke-linecap="round" stroke-linejoin="round"/>
<path d="M1.99951 12.3501H7.7995C8.7595 12.3501 9.51953 12.8001 9.95953 13.4901" stroke="#3492F7" stroke-width="1.5" stroke-linecap="round" stroke-linejoin="round"/>
<path d="M1.99951 12.35C1.99951 6.29998 3.12954 5.30003 6.52954 3.28003" stroke="#3492F7" stroke-width="1.5" stroke-linecap="round" stroke-linejoin="round"/>
<path d="M13.6299 12.3501H19.4299C20.9599 12.3501 22.0099 13.5101 22.0099 14.9301V18.1501C22.0099 19.5701 20.9599 20.7301 19.4299 20.7301H16.2099C14.7899 20.7301 13.6299 19.5701 13.6299 18.1501V12.3501" stroke="#3492F7" stroke-width="1.5" stroke-linecap="round" stroke-linejoin="round"/>
<path d="M13.6299 12.35C13.6299 6.29998 14.7599 5.30003 18.1599 3.28003" stroke="#3492F7" stroke-width="1.5" stroke-linecap="round" stroke-linejoin="round"/>
</svg>
