<svg width="24" height="24" viewBox="0 0 24 24" fill="none" xmlns="http://www.w3.org/2000/svg">
<path d="M17.0004 11.84H14.3204C13.6104 11.84 13.1304 11.3 13.1304 10.65V9.15997C13.1304 8.50997 13.6104 7.96997 14.3204 7.96997H15.8104C16.4604 7.96997 17.0004 8.50997 17.0004 9.15997V11.84Z" stroke="#3492F7" stroke-width="1.5" stroke-linecap="round" stroke-linejoin="round"/>
<path d="M17.0002 11.8401C17.0002 14.6301 16.4802 15.1001 14.9102 16.0301" stroke="#3492F7" stroke-width="1.5" stroke-linecap="round" stroke-linejoin="round"/>
<path d="M10.8602 11.84H8.18022C7.47022 11.84 6.99023 11.3 6.99023 10.65V9.15997C6.99023 8.50997 7.47022 7.96997 8.18022 7.96997H9.67023C10.3202 7.96997 10.8602 8.50997 10.8602 9.15997V11.84Z" stroke="#3492F7" stroke-width="1.5" stroke-linecap="round" stroke-linejoin="round"/>
<path d="M10.86 11.8401C10.86 14.6301 10.34 15.1001 8.77002 16.0301" stroke="#3492F7" stroke-width="1.5" stroke-linecap="round" stroke-linejoin="round"/>
<path d="M4 6C2.75 7.67 2 9.75 2 12C2 17.52 6.48 22 12 22C17.52 22 22 17.52 22 12C22 6.48 17.52 2 12 2C10.57 2 9.2 2.29998 7.97 2.84998" stroke="#3492F7" stroke-width="1.5" stroke-linecap="round" stroke-linejoin="round"/>
</svg>
