<svg width="24" height="24" viewBox="0 0 24 24" fill="none" xmlns="http://www.w3.org/2000/svg">
<path d="M1.99998 7.14012C1.99998 5.92012 2.92999 4.57012 4.06999 4.14012L9.04999 2.2701C9.86999 1.9601 11.23 1.9601 12.05 2.2701L17.02 4.14012C17.97 4.50012 18.78 5.5001 19.03 6.5201H11.73C11.51 6.5201 11.31 6.53011 11.12 6.53011C9.26998 6.64011 8.78998 7.31012 8.78998 9.42012V14.8501C8.78998 17.1601 9.37998 17.7501 11.73 17.7501H17.65C17.56 17.8301 17.47 17.9001 17.38 17.9801L13.11 21.1801C11.7 22.2301 9.39998 22.2301 7.97998 21.1801L3.69998 17.9801C2.75998 17.2801 1.98999 15.7301 1.98999 14.5601V11.2401" stroke="#3492F7" stroke-width="1.5" stroke-linecap="round" stroke-linejoin="round"/>
<path d="M8.79999 11.2202H22" stroke="#3492F7" stroke-width="1.5" stroke-miterlimit="10" stroke-linecap="round" stroke-linejoin="round"/>
<path d="M22 9.42026V14.9702C21.98 17.1902 21.37 17.7402 19.06 17.7402H11.74C9.38999 17.7402 8.79999 17.1502 8.79999 14.8402V9.41025C8.79999 7.31025 9.27999 6.64023 11.13 6.52023C11.32 6.52023 11.52 6.51025 11.74 6.51025H19.06C21.41 6.52025 22 7.10026 22 9.42026Z" stroke="#3492F7" stroke-width="1.5" stroke-linecap="round" stroke-linejoin="round"/>
<path d="M11.32 15.2603H12.65" stroke="#3492F7" stroke-width="1.5" stroke-miterlimit="10" stroke-linecap="round" stroke-linejoin="round"/>
<path d="M14.75 15.2603H18.02" stroke="#3492F7" stroke-width="1.5" stroke-miterlimit="10" stroke-linecap="round" stroke-linejoin="round"/>
</svg>
