<svg width="24" height="24" viewBox="0 0 24 24" fill="none" xmlns="http://www.w3.org/2000/svg">
<path d="M2 15C2 20 4 22 9 22H15C20 22 22 20 22 15V9C22 4 20 2 15 2H9C4 2 2 4 2 9V10.91H9.64999" stroke="#3492F7" stroke-width="1.5" stroke-miterlimit="10" stroke-linecap="round" stroke-linejoin="round"/>
<path d="M14.35 10.9101C14.25 11.6201 13.83 12.2201 13.25 12.5801V14.5601C13.25 15.2501 12.69 15.8101 12 15.8101C11.31 15.8101 10.75 15.2501 10.75 14.5601V12.5801C10.17 12.2201 9.74999 11.6201 9.64999 10.9101C9.62999 10.8001 9.62 10.6801 9.62 10.5601C9.62 9.04012 11.06 7.86012 12.64 8.28012C13.44 8.49012 14.09 9.14012 14.3 9.94012C14.39 10.2701 14.4 10.6001 14.35 10.9101Z" stroke="#3492F7" stroke-width="1.5" stroke-miterlimit="10"/>
<path d="M18 10.9099H14.35" stroke="#3492F7" stroke-width="1.5" stroke-miterlimit="10" stroke-linecap="round" stroke-linejoin="round"/>
</svg>
