<svg width="24" height="24" viewBox="0 0 24 24" fill="none" xmlns="http://www.w3.org/2000/svg">
<path d="M15 2V12C15 13.1 14.1 14 13 14H2V7.62C2.73 8.49 3.85003 9.03 5.09003 9C6.10003 8.98 7.01 8.59 7.69 7.94C8 7.68 8.26002 7.34999 8.46002 6.98999C8.82002 6.37999 9.02 5.65997 9 4.90997C8.97 3.73997 8.45001 2.71 7.64001 2H15Z" stroke="#3492F7" stroke-width="1.5" stroke-linecap="round" stroke-linejoin="round"/>
<path d="M20.2895 9H18.9995C18.4495 9 17.9995 9.45 17.9995 10V13C17.9995 13.55 18.4495 14 18.9995 14H21.9995V17C21.9995 18.66 20.6595 20 18.9995 20H17.9995C17.9995 18.9 17.0995 18 15.9995 18C14.8995 18 13.9995 18.9 13.9995 20H9.99951C9.99951 18.9 9.09951 18 7.99951 18C6.89951 18 5.99951 18.9 5.99951 20H4.99951C3.93951 20 3.00949 19.45 2.47949 18.63" stroke="#3492F7" stroke-width="1.5" stroke-linecap="round" stroke-linejoin="round"/>
<path d="M2 14H13C14.1 14 15 13.1 15 12V5H16.84C17.2 5 17.55 5.10002 17.85 5.27002" stroke="#3492F7" stroke-width="1.5" stroke-linecap="round" stroke-linejoin="round"/>
<path d="M8 22C9.10457 22 10 21.1046 10 20C10 18.8954 9.10457 18 8 18C6.89543 18 6 18.8954 6 20C6 21.1046 6.89543 22 8 22Z" stroke="#3492F7" stroke-width="1.5" stroke-linecap="round" stroke-linejoin="round"/>
<path d="M16 22C17.1046 22 18 21.1046 18 20C18 18.8954 17.1046 18 16 18C14.8954 18 14 18.8954 14 20C14 21.1046 14.8954 22 16 22Z" stroke="#3492F7" stroke-width="1.5" stroke-linecap="round" stroke-linejoin="round"/>
<path d="M22 12V14H19C18.45 14 18 13.55 18 13V10C18 9.45 18.45 9 19 9H20.29L22 12Z" stroke="#3492F7" stroke-width="1.5" stroke-linecap="round" stroke-linejoin="round"/>
<path d="M9.00017 4.90975C9.02017 5.65975 8.82019 6.37977 8.46019 6.98977C8.26019 7.34977 8.00017 7.67978 7.69017 7.93978C7.01017 8.58978 6.1002 8.97978 5.0902 8.99978C3.8502 9.02978 2.73017 8.48977 2.00017 7.61977C1.86017 7.46977 1.74018 7.29978 1.63018 7.12978C1.24018 6.53978 1.02017 5.8398 1.00017 5.0898C0.970172 3.8298 1.53016 2.67977 2.43016 1.92977C3.11016 1.36977 3.97014 1.01978 4.91014 0.999776C5.96014 0.979776 6.92019 1.35978 7.64019 1.99978C8.45019 2.70978 8.97017 3.73975 9.00017 4.90975Z" stroke="#3492F7" stroke-width="1.5" stroke-miterlimit="10" stroke-linecap="round" stroke-linejoin="round"/>
<path d="M3.44043 5.02979L4.45044 5.98975L6.54041 3.96973" stroke="#3492F7" stroke-width="1.5" stroke-linecap="round" stroke-linejoin="round"/>
</svg>
