<svg width="24" height="24" viewBox="0 0 24 24" fill="none" xmlns="http://www.w3.org/2000/svg">
<path d="M8.38 12L10.79 14.42L15.62 9.57996" stroke="#3492F7" stroke-width="1.5" stroke-linecap="round" stroke-linejoin="round"/>
<path d="M4.24 6.19996C4.24 5.13996 5.11 4.26996 6.17 4.26996H7.9C8.3 4.26996 8.86 4.05996 9.16 3.80996L10.74 2.45996C11.44 1.86996 12.57 1.86996 13.25 2.45996L14.83 3.80996C15.13 4.05996 15.7 4.26996 16.1 4.26996H17.8C18.86 4.26996 19.73 5.13996 19.73 6.19996V7.89996C19.73 8.29996 19.94 8.85996 20.19 9.15996L21.54 10.74C22.13 11.44 22.13 12.57 21.54 13.25L20.19 14.83C19.94 15.13 19.73 15.69 19.73 16.09V17.79C19.73 18.85 18.86 19.72 17.8 19.72H16.1C15.7 19.72 15.14 19.93 14.84 20.18L13.26 21.53C12.56 22.12 11.43 22.12 10.75 21.53L9.17 20.18C8.87 19.93 8.3 19.72 7.91 19.72H6.17C5.11 19.72 4.24 18.85 4.24 17.79V16.08C4.24 15.69 4.04 15.12 3.79 14.83L2.44 13.24C1.86 12.55 1.86 11.43 2.44 10.74L3 10.08" stroke="#3492F7" stroke-width="1.5" stroke-linecap="round" stroke-linejoin="round"/>
</svg>
