<svg width="24" height="24" viewBox="0 0 24 24" fill="none" xmlns="http://www.w3.org/2000/svg">
<path d="M17.45 22.75C16.32 22.75 15.13 22.48 13.9 21.96C12.7 21.45 11.49 20.75 10.31 19.9C9.14 19.04 8.01 18.08 6.94 17.03C5.88 15.96 4.92 14.83 4.07 13.67C3.21 12.47 2.52 11.27 2.03 10.11C1.51 8.87 1.25 7.67 1.25 6.54C1.25 5.76 1.39 5.02 1.66 4.33C1.94 3.62 2.39 2.96 3 2.39C3.77 1.63 4.65 1.25 5.59 1.25C5.98 1.25 6.38 1.34 6.72 1.5C7.11 1.68 7.44 1.95 7.68 2.31L10 5.58C10.21 5.87 10.37 6.15 10.48 6.43C10.61 6.73 10.68 7.03 10.68 7.32C10.68 7.7 10.57 8.07 10.36 8.42C10.21 8.69 9.98 8.98 9.69 9.27L9.01 9.98C9.02 10.01 9.03 10.03 9.04 10.05C9.16 10.26 9.4 10.62 9.86 11.16C10.35 11.72 10.81 12.23 11.27 12.7C11.86 13.28 12.35 13.74 12.81 14.12C13.38 14.6 13.75 14.84 13.97 14.95L13.95 15L14.68 14.28C14.99 13.97 15.29 13.74 15.58 13.59C16.13 13.25 16.83 13.19 17.53 13.48C17.79 13.59 18.07 13.74 18.37 13.95L21.69 16.31C22.06 16.56 22.33 16.88 22.49 17.26C22.64 17.64 22.71 17.99 22.71 18.34C22.71 18.82 22.6 19.3 22.39 19.75C22.18 20.2 21.92 20.59 21.59 20.95C21.02 21.58 20.4 22.03 19.68 22.32C18.99 22.6 18.24 22.75 17.45 22.75ZM5.59 2.75C5.04 2.75 4.53 2.99 4.04 3.47C3.58 3.9 3.26 4.37 3.06 4.88C2.85 5.4 2.75 5.95 2.75 6.54C2.75 7.47 2.97 8.48 3.41 9.52C3.86 10.58 4.49 11.68 5.29 12.78C6.09 13.88 7 14.95 8 15.96C9 16.95 10.08 17.87 11.19 18.68C12.27 19.47 13.38 20.11 14.48 20.57C16.19 21.3 17.79 21.47 19.11 20.92C19.62 20.71 20.07 20.39 20.48 19.93C20.71 19.68 20.89 19.41 21.04 19.09C21.16 18.84 21.22 18.58 21.22 18.32C21.22 18.16 21.19 18 21.11 17.82C21.08 17.76 21.02 17.65 20.83 17.52L17.51 15.16C17.31 15.02 17.13 14.92 16.96 14.85C16.74 14.76 16.65 14.67 16.31 14.88C16.11 14.98 15.93 15.13 15.73 15.33L14.97 16.08C14.58 16.46 13.98 16.55 13.52 16.38L13.25 16.26C12.84 16.04 12.36 15.7 11.83 15.25C11.35 14.84 10.83 14.36 10.2 13.74C9.71 13.24 9.22 12.71 8.71 12.12C8.24 11.57 7.9 11.1 7.69 10.71L7.57 10.41C7.51 10.18 7.49 10.05 7.49 9.91C7.49 9.55 7.62 9.23 7.87 8.98L8.62 8.2C8.82 8 8.97 7.81 9.07 7.64C9.15 7.51 9.18 7.4 9.18 7.3C9.18 7.22 9.15 7.1 9.1 6.98C9.03 6.82 8.92 6.64 8.78 6.45L6.46 3.17C6.36 3.03 6.24 2.93 6.09 2.86C5.93 2.79 5.76 2.75 5.59 2.75ZM13.95 15.01L13.79 15.69L14.06 14.99C14.01 14.98 13.97 14.99 13.95 15.01Z" fill="#3492F7"/>
<path d="M23.3334 6.11018C23.3334 6.23018 23.3067 6.35351 23.25 6.47351C23.1934 6.59351 23.12 6.70684 23.0234 6.81351C22.86 6.99351 22.68 7.12351 22.4767 7.20684C22.2767 7.29018 22.0567 7.33351 21.8234 7.33351C21.4834 7.33351 21.12 7.25351 20.7367 7.09018C20.3534 6.92684 19.9667 6.70684 19.5867 6.43018C19.3934 6.28684 19.2034 6.14018 19.02 5.98018L20.1067 4.89351C20.11 4.89351 20.11 4.89351 20.1134 4.89684C20.2867 5.04351 20.43 5.14351 20.5434 5.20351C20.56 5.21018 20.58 5.22018 20.6034 5.23018C20.63 5.24018 20.6567 5.24351 20.6867 5.24351C20.7434 5.24351 20.7867 5.22351 20.8234 5.18684L21.0767 4.93684C21.16 4.85351 21.24 4.79018 21.3167 4.75018C21.3934 4.70351 21.47 4.68018 21.5534 4.68018C21.6167 4.68018 21.6834 4.69351 21.7567 4.72351C21.83 4.75351 21.9067 4.79684 21.99 4.85351L23.0967 5.63684C23.1834 5.69684 23.2434 5.76684 23.28 5.85018C23.3134 5.93351 23.3334 6.01684 23.3334 6.11018Z" fill="#3492F7"/>
<path d="M19.5867 4.41317L18.5001 5.49984C18.4967 5.49984 18.4967 5.49984 18.4934 5.4965C18.1501 5.14984 17.8401 4.7865 17.5601 4.4065C17.2901 4.03317 17.0734 3.6565 16.9134 3.2865C16.9101 3.27984 16.9101 3.2765 16.9067 3.26984C16.7467 2.88984 16.6667 2.5265 16.6667 2.17984C16.6667 1.95317 16.7067 1.7365 16.7867 1.5365C16.8534 1.3665 16.9534 1.2065 17.0901 1.06317C17.1134 1.0365 17.1401 1.0065 17.1701 0.979837C17.2234 0.926504 17.2767 0.879837 17.3334 0.843171C17.3367 0.843171 17.3367 0.843171 17.3367 0.843171C17.5034 0.723171 17.6801 0.666504 17.8667 0.666504C17.9601 0.666504 18.0534 0.686504 18.1367 0.726504C18.2167 0.763171 18.2867 0.816504 18.3434 0.893171C18.3501 0.899837 18.3534 0.906504 18.3601 0.913171L19.1334 2.00317C19.1934 2.0865 19.2367 2.16317 19.2667 2.2365C19.2967 2.3065 19.3134 2.3765 19.3134 2.43984C19.3134 2.51984 19.2901 2.59984 19.2434 2.6765C19.2001 2.75317 19.1367 2.83317 19.0567 2.91317L18.8034 3.1765C18.7667 3.21317 18.7501 3.2565 18.7501 3.30984C18.7501 3.3365 18.7534 3.35984 18.7601 3.3865C18.7701 3.41317 18.7801 3.43317 18.7867 3.45317C18.8467 3.56317 18.9501 3.7065 19.0967 3.87984C19.2467 4.05317 19.4067 4.22984 19.5801 4.4065C19.5834 4.40984 19.5834 4.40984 19.5867 4.41317Z" fill="#3492F7"/>
<path d="M23.2565 0.743457C23.1565 0.643457 22.9932 0.643457 22.8932 0.743457L16.7432 6.89679C16.6432 6.99679 16.6432 7.16012 16.7432 7.26012C16.7932 7.30679 16.8565 7.33346 16.9232 7.33346C16.9899 7.33346 17.0532 7.30679 17.1032 7.25679L23.2565 1.10346C23.3599 1.00346 23.3599 0.843457 23.2565 0.743457Z" fill="#3492F7"/>
</svg>
