<svg width="24" height="24" viewBox="0 0 24 24" fill="none" xmlns="http://www.w3.org/2000/svg">
<path d="M12.07 21.9801C10.66 21.9801 9.23997 21.4401 8.16997 20.3701L3.63997 15.8401C2.53997 14.7401 1.95997 13.2201 2.02997 11.6701L2.26997 6.66008C2.37997 4.27008 4.26997 2.38008 6.66997 2.26008L11.67 2.02008C13.23 1.95008 14.74 2.53008 15.84 3.63008L20.37 8.16008C22.52 10.3101 22.52 13.8201 20.37 15.9701L15.98 20.3601C14.9 21.4401 13.49 21.9801 12.07 21.9801ZM4.69997 14.7701L9.22997 19.3001C10.8 20.8701 13.35 20.8701 14.92 19.3001L19.31 14.9101C20.88 13.3401 20.88 10.7901 19.31 9.22008L14.77 4.70008C13.97 3.90008 12.88 3.48008 11.73 3.53008L6.72997 3.77008C5.10997 3.84008 3.83997 5.11008 3.75997 6.73008L3.51997 11.7401C3.46997 12.8601 3.89997 13.9701 4.69997 14.7701Z" fill="#3492F7"/>
<path d="M9.5 12.75C7.71 12.75 6.25 11.29 6.25 9.5C6.25 7.71 7.71 6.25 9.5 6.25C11.29 6.25 12.75 7.71 12.75 9.5C12.75 11.29 11.29 12.75 9.5 12.75ZM9.5 7.75C8.54 7.75 7.75 8.54 7.75 9.5C7.75 10.46 8.54 11.25 9.5 11.25C10.46 11.25 11.25 10.46 11.25 9.5C11.25 8.54 10.46 7.75 9.5 7.75Z" fill="#3492F7"/>
<path d="M12.9999 17.7499C12.8099 17.7499 12.6199 17.6799 12.4699 17.5299C12.1799 17.2399 12.1799 16.7599 12.4699 16.4699L16.4699 12.4699C16.7599 12.1799 17.2399 12.1799 17.5299 12.4699C17.8199 12.7599 17.8199 13.2399 17.5299 13.5299L13.5299 17.5299C13.3799 17.6799 13.1899 17.7499 12.9999 17.7499Z" fill="#3492F7"/>
</svg>
