<svg width="24" height="24" viewBox="0 0 24 24" fill="none" xmlns="http://www.w3.org/2000/svg">
<path d="M23.3334 6.11018C23.3334 6.23018 23.3067 6.35351 23.25 6.47351C23.1934 6.59351 23.12 6.70684 23.0234 6.81351C22.86 6.99351 22.68 7.12351 22.4767 7.20684C22.2767 7.29018 22.0567 7.33351 21.8234 7.33351C21.4834 7.33351 21.12 7.25351 20.7367 7.09018C20.3534 6.92684 19.9667 6.70684 19.5867 6.43018C19.3934 6.28684 19.2034 6.14018 19.02 5.98018L20.1067 4.89351C20.11 4.89351 20.11 4.89351 20.1134 4.89684C20.2867 5.04351 20.43 5.14351 20.5434 5.20351C20.56 5.21018 20.58 5.22018 20.6034 5.23018C20.63 5.24018 20.6567 5.24351 20.6867 5.24351C20.7434 5.24351 20.7867 5.22351 20.8234 5.18684L21.0767 4.93684C21.16 4.85351 21.24 4.79018 21.3167 4.75018C21.3934 4.70351 21.47 4.68018 21.5534 4.68018C21.6167 4.68018 21.6834 4.69351 21.7567 4.72351C21.83 4.75351 21.9067 4.79684 21.99 4.85351L23.0967 5.63684C23.1834 5.69684 23.2434 5.76684 23.28 5.85018C23.3134 5.93351 23.3334 6.01684 23.3334 6.11018Z" fill="#3492F7"/>
<path d="M19.5867 4.41317L18.5001 5.49984C18.4967 5.49984 18.4967 5.49984 18.4934 5.4965C18.1501 5.14984 17.8401 4.7865 17.5601 4.4065C17.2901 4.03317 17.0734 3.6565 16.9134 3.2865C16.9101 3.27984 16.9101 3.2765 16.9067 3.26984C16.7467 2.88984 16.6667 2.5265 16.6667 2.17984C16.6667 1.95317 16.7067 1.7365 16.7867 1.5365C16.8534 1.3665 16.9534 1.2065 17.0901 1.06317C17.1134 1.0365 17.1401 1.0065 17.1701 0.979837C17.2234 0.926504 17.2767 0.879837 17.3334 0.843171C17.3367 0.843171 17.3367 0.843171 17.3367 0.843171C17.5034 0.723171 17.6801 0.666504 17.8667 0.666504C17.9601 0.666504 18.0534 0.686504 18.1367 0.726504C18.2167 0.763171 18.2867 0.816504 18.3434 0.893171C18.3501 0.899837 18.3534 0.906504 18.3601 0.913171L19.1334 2.00317C19.1934 2.0865 19.2367 2.16317 19.2667 2.2365C19.2967 2.3065 19.3134 2.3765 19.3134 2.43984C19.3134 2.51984 19.2901 2.59984 19.2434 2.6765C19.2001 2.75317 19.1367 2.83317 19.0567 2.91317L18.8034 3.1765C18.7667 3.21317 18.7501 3.2565 18.7501 3.30984C18.7501 3.3365 18.7534 3.35984 18.7601 3.3865C18.7701 3.41317 18.7801 3.43317 18.7867 3.45317C18.8467 3.56317 18.9501 3.7065 19.0967 3.87984C19.2467 4.05317 19.4067 4.22984 19.5801 4.4065C19.5834 4.40984 19.5834 4.40984 19.5867 4.41317Z" fill="#3492F7"/>
<path d="M23.2565 0.743457C23.1565 0.643457 22.9932 0.643457 22.8932 0.743457L16.7432 6.89679C16.6432 6.99679 16.6432 7.16012 16.7432 7.26012C16.7932 7.30679 16.8565 7.33346 16.9232 7.33346C16.9899 7.33346 17.0532 7.30679 17.1032 7.25679L23.2565 1.10346C23.3599 1.00346 23.3599 0.843457 23.2565 0.743457Z" fill="#3492F7"/>
<path d="M11.05 14.95L9.2 16.8C8.81 17.19 8.19 17.19 7.79 16.81C7.68 16.7 7.57 16.6 7.46 16.49C6.43 15.45 5.5 14.36 4.67 13.22C3.85 12.08 3.19 10.94 2.71 9.81C2.24 8.67 2 7.58 2 6.54C2 5.86 2.12 5.21 2.36 4.61C2.6 4 2.98 3.44 3.51 2.94C4.15 2.31 4.85 2 5.59 2C5.87 2 6.15 2.06 6.4 2.18C6.66 2.3 6.89 2.48 7.07 2.74L9.39 6.01C9.57 6.26 9.7 6.49 9.79 6.71C9.88 6.92 9.93 7.13 9.93 7.32C9.93 7.56 9.86 7.8 9.72 8.03C9.59 8.26 9.4 8.5 9.16 8.74L8.4 9.53C8.29 9.64 8.24 9.77 8.24 9.93C8.24 10.01 8.25 10.08 8.27 10.16C8.3 10.24 8.33 10.3 8.35 10.36C8.53 10.69 8.84 11.12 9.28 11.64C9.73 12.16 10.21 12.69 10.73 13.22C10.83 13.32 10.94 13.42 11.04 13.52C11.44 13.91 11.45 14.55 11.05 14.95Z" fill="#3492F7"/>
<path d="M21.9701 18.33C21.9701 18.61 21.9201 18.9 21.8201 19.18C21.7901 19.26 21.7601 19.34 21.7201 19.42C21.5501 19.78 21.3301 20.12 21.0401 20.44C20.5501 20.98 20.0101 21.37 19.4001 21.62C19.3901 21.62 19.3801 21.63 19.3701 21.63C18.7801 21.87 18.1401 22 17.4501 22C16.4301 22 15.3401 21.76 14.1901 21.27C13.0401 20.78 11.8901 20.12 10.7501 19.29C10.3601 19 9.9701 18.71 9.6001 18.4L12.8701 15.13C13.1501 15.34 13.4001 15.5 13.6101 15.61C13.6601 15.63 13.7201 15.66 13.7901 15.69C13.8701 15.72 13.9501 15.73 14.0401 15.73C14.2101 15.73 14.3401 15.67 14.4501 15.56L15.2101 14.81C15.4601 14.56 15.7001 14.37 15.9301 14.25C16.1601 14.11 16.3901 14.04 16.6401 14.04C16.8301 14.04 17.0301 14.08 17.2501 14.17C17.4701 14.26 17.7001 14.39 17.9501 14.56L21.2601 16.91C21.5201 17.09 21.7001 17.3 21.8101 17.55C21.9101 17.8 21.9701 18.05 21.9701 18.33Z" fill="#3492F7"/>
</svg>
