<svg width="24" height="24" viewBox="0 0 24 24" fill="none" xmlns="http://www.w3.org/2000/svg">
<path d="M8.25925 21.2448C8.90622 20.5978 9.27789 19.7719 9.37425 18.9184C9.50502 17.7828 9.12647 16.6058 8.25925 15.7386C7.74305 15.2224 7.10984 14.8783 6.44222 14.72C5.16892 14.3965 3.75797 14.7337 2.75309 15.7386C2.05794 16.4338 1.67939 17.3216 1.63121 18.237C1.5968 18.6294 1.63121 19.0354 1.73446 19.4277C1.89276 20.0954 2.23689 20.7286 2.75309 21.2448C4.27417 22.7659 6.73818 22.7659 8.25925 21.2448ZM6.9653 17.7759C7.3645 17.7759 7.69487 18.1063 7.69487 18.5055C7.68799 18.9115 7.3645 19.235 6.95842 19.2419L6.23574 19.235L6.24262 19.9302C6.23574 20.3363 5.91225 20.6597 5.50617 20.6666C5.10009 20.6597 4.77661 20.3363 4.76972 19.9302L4.77661 19.235L4.05392 19.2419C3.64784 19.235 3.32436 18.9115 3.31748 18.5055C3.32436 18.3059 3.40695 18.1269 3.53772 17.9961C3.66849 17.8654 3.84744 17.7828 4.04704 17.7759L4.77661 17.7759L4.77661 17.0188C4.77661 16.8123 4.8592 16.6334 4.98997 16.5026C5.12074 16.3718 5.29969 16.2892 5.50617 16.2892C5.90537 16.2892 6.23574 16.6196 6.23574 17.0188L6.23574 17.7759L6.9653 17.7759Z" fill="#3492F7"/>
<path d="M15.0952 3.84548V7.54425H13.6352V3.84548C13.6352 3.58267 13.4016 3.45613 13.2458 3.45613C13.1972 3.45613 13.1485 3.46587 13.0998 3.48533L5.38108 6.39568C4.8652 6.59035 4.53426 7.07703 4.53426 7.63185V8.284C3.6485 8.94589 3.07422 10.0068 3.07422 11.2041V7.63185C3.07422 6.47355 3.78477 5.44179 4.8652 5.03298L12.5937 2.1129C12.8078 2.03503 13.0317 1.99609 13.2458 1.99609C14.2192 1.99609 15.0952 2.78452 15.0952 3.84548Z" fill="#3492F7"/>
<path d="M21.5695 14.1153V15.0887C21.5695 15.3515 21.3651 15.5656 21.0925 15.5754H19.6714C19.1556 15.5754 18.6883 15.1958 18.6494 14.6896C18.6202 14.3879 18.737 14.1056 18.9317 13.9109C19.1069 13.726 19.3502 13.6287 19.613 13.6287H21.0828C21.3651 13.6384 21.5695 13.8525 21.5695 14.1153Z" fill="#3492F7"/>
<path d="M19.6019 12.6049H20.5947C21.1301 12.6049 21.5681 12.1669 21.5681 11.6316V11.2033C21.5681 9.18844 19.9231 7.54346 17.9082 7.54346H6.73405C5.9067 7.54346 5.14748 7.816 4.53426 8.28321C3.6485 8.9451 3.07422 10.0061 3.07422 11.2033V12.9359C3.07422 13.3057 3.46356 13.5394 3.81397 13.4226C4.35905 13.2376 4.93334 13.1403 5.50762 13.1403C8.4569 13.1403 10.8611 15.5445 10.8611 18.4938C10.8611 19.1946 10.6762 19.9635 10.3842 20.6449C10.2284 20.9953 10.4718 21.4138 10.8514 21.4138H17.9082C19.9231 21.4138 21.5681 19.7689 21.5681 17.754V17.5691C21.5681 17.0337 21.1301 16.5957 20.5947 16.5957H19.7479C18.8135 16.5957 17.918 16.0214 17.6746 15.1162C17.4799 14.3764 17.7136 13.6562 18.2002 13.1889C18.5604 12.8191 19.0568 12.6049 19.6019 12.6049ZM14.2679 12.4103H9.40106C9.00198 12.4103 8.67104 12.0793 8.67104 11.6802C8.67104 11.2812 9.00198 10.9502 9.40106 10.9502H14.2679C14.6669 10.9502 14.9979 11.2812 14.9979 11.6802C14.9979 12.0793 14.6669 12.4103 14.2679 12.4103Z" fill="#3492F7"/>
</svg>
