<svg width="24" height="24" viewBox="0 0 24 24" fill="none" xmlns="http://www.w3.org/2000/svg">
<path d="M13.49 13.3799H11C10.7 13.3799 10.46 13.6199 10.46 13.9199C10.46 14.2199 10.7 14.4599 11 14.4599H13.49C13.79 14.4599 14.03 14.2199 14.03 13.9199C14.03 13.6199 13.79 13.3799 13.49 13.3799Z" fill="#3492F7"/>
<path d="M9.44002 13.3799H8.19002C7.89002 13.3799 7.65002 13.6199 7.65002 13.9199C7.65002 14.2199 7.89002 14.4599 8.19002 14.4599H9.44002C9.74002 14.4599 9.98002 14.2199 9.98002 13.9199C9.98002 13.6199 9.74002 13.3799 9.44002 13.3799Z" fill="#3492F7"/>
<path d="M18.54 4.21994L13.04 2.15994C12.47 1.94994 11.54 1.94994 10.97 2.15994L5.46999 4.21994C4.40999 4.61994 3.54999 5.85994 3.54999 6.98994V15.0899C3.54999 15.8999 4.07999 16.9699 4.72999 17.4499L10.23 21.5599C11.2 22.2899 12.79 22.2899 13.76 21.5599L19.26 17.4499C19.91 16.9599 20.44 15.8999 20.44 15.0899V6.98994C20.45 5.85994 19.59 4.61994 18.54 4.21994ZM18.17 13.6499C18.15 15.7199 17.58 16.2399 15.43 16.2399H8.57999C6.38999 16.2399 5.83999 15.6999 5.83999 13.5299V11.1999C5.83999 10.9199 6.05999 10.6999 6.33999 10.6999H17.67C17.95 10.6999 18.17 10.9199 18.17 11.1999V13.6499ZM18.17 9.10994C18.17 9.38994 17.95 9.60994 17.67 9.60994H6.33999C6.05999 9.60994 5.83999 9.38994 5.83999 9.10994V8.46994C5.83999 6.50994 6.29999 5.87994 8.00999 5.76994C8.18999 5.76994 8.37999 5.75994 8.57999 5.75994H15.43C17.62 5.75994 18.17 6.29994 18.17 8.46994V9.10994Z" fill="#3492F7"/>
</svg>
